<svg xmlns="http://www.w3.org/2000/svg" viewBox="0 0 512 512" width="512" height="512">
  <rect width="512" height="512" rx="108" fill="#1a1a1a"/>
  <g transform="translate(80 63.5) scale(2.2)">
    <!-- Editor frame -->
    <path
      d="M20 10H125L160 45V145C160 156.046 151.046 165 140 165H20C8.954 165 0 156.046 0 145V30C0 18.954 8.954 10 20 10Z"
      fill="#282828"
    />

    <!-- Orange folded corner -->
    <path
      d="M125 10V35C125 46.046 133.954 55 145 55H160L125 10Z"
      fill="#FFA116"
    />

    <!-- Inner editor -->
    <rect
      x="12"
      y="52"
      width="136"
      height="101"
      rx="10"
      fill="white"
    />

    <!-- Window dots -->
    <circle cx="28" cy="34" r="5" fill="#FFA116"/>
    <circle cx="44" cy="34" r="5" fill="#B3B3B3"/>
    <circle cx="60" cy="34" r="5" fill="#B3B3B3"/>

    <!-- < -->
    <path
      d="M48 82L34 96L48 110"
      stroke="#FFA116"
      stroke-width="8"
      stroke-linecap="round"
      stroke-linejoin="round"
    />

    <!-- / -->
    <path
      d="M82 78L70 114"
      stroke="#282828"
      stroke-width="8"
      stroke-linecap="round"
    />

    <!-- > -->
    <path
      d="M104 82L118 96L104 110"
      stroke="#FFA116"
      stroke-width="8"
      stroke-linecap="round"
      stroke-linejoin="round"
    />
  </g>
</svg>
